<svg data-v-423bf9ae="" xmlns="http://www.w3.org/2000/svg" viewBox="0 0 336 90" class="iconLeft"><!----><!----><!----><g data-v-423bf9ae="" id="e4e07dd6-8311-43bf-b614-f5290aa5861e" fill="#ffffff" transform="matrix(4.4776120677666755,0,0,4.4776120677666755,113.9855242135874,14.999999046325684)"><path d="M4.62 3.54C3.53 3.54 2.49 4.07 2.02 4.97L2.02 3.68L1.12 3.68L1.12 13.40L2.02 13.40L2.02 8.95C2.51 9.84 3.51 10.36 4.62 10.36C6.45 10.36 7.94 8.95 7.94 6.96C7.94 4.97 6.45 3.54 4.62 3.54ZM4.55 9.51C3.25 9.51 2.02 8.51 2.02 6.93C2.02 5.42 3.19 4.40 4.55 4.40C5.94 4.40 7.06 5.52 7.06 6.97C7.06 8.41 5.94 9.51 4.55 9.51ZM15.20 3.68L15.20 4.94C14.71 4.06 13.71 3.54 12.60 3.54C10.77 3.54 9.28 4.96 9.28 6.94C9.28 8.93 10.78 10.36 12.60 10.36C13.69 10.36 14.71 9.84 15.20 8.95L15.20 10.22L16.10 10.22L16.10 3.68ZM12.67 9.51C11.30 9.51 10.18 8.39 10.18 6.93C10.18 5.49 11.30 4.40 12.67 4.40C13.97 4.40 15.20 5.39 15.20 6.97C15.20 8.48 14.03 9.51 12.67 9.51ZM18.34 10.22L19.24 10.22L19.24 0L18.34 0ZM26.95 3.68L26.95 4.94C26.46 4.06 25.45 3.54 24.35 3.54C22.51 3.54 21.03 4.96 21.03 6.94C21.03 8.93 22.53 10.36 24.35 10.36C25.44 10.36 26.46 9.84 26.95 8.95L26.95 10.22L27.85 10.22L27.85 3.68ZM24.42 9.51C23.04 9.51 21.92 8.39 21.92 6.93C21.92 5.49 23.04 4.40 24.42 4.40C25.72 4.40 26.95 5.39 26.95 6.97C26.95 8.48 25.77 9.51 24.42 9.51ZM33.04 3.54C32.02 3.54 31.32 4.17 31.00 5.28L31.00 3.68L30.09 3.68L30.09 10.22L31.00 10.22L31.00 7.76C31.00 6.15 31.47 4.41 33.03 4.41C33.26 4.41 33.57 4.45 33.91 4.59L34.08 3.74C33.82 3.61 33.40 3.54 33.04 3.54ZM40.47 3.68L40.47 4.94C39.98 4.06 38.98 3.54 37.87 3.54C36.04 3.54 34.55 4.96 34.55 6.94C34.55 8.93 36.05 10.36 37.87 10.36C38.96 10.36 39.98 9.84 40.47 8.95L40.47 10.22L41.37 10.22L41.37 3.68ZM37.94 9.51C36.57 9.51 35.45 8.39 35.45 6.93C35.45 5.49 36.57 4.40 37.94 4.40C39.24 4.40 40.47 5.39 40.47 6.97C40.47 8.48 39.30 9.51 37.94 9.51ZM46.77 3.54C45.96 3.54 44.90 3.92 44.51 4.86L44.51 3.68L43.61 3.68L43.61 10.22L44.51 10.22L44.51 6.59C44.53 5.01 45.64 4.42 46.69 4.42C47.74 4.42 48.54 5.19 48.54 6.45L48.54 10.22L49.43 10.22L49.43 6.41C49.43 4.61 48.36 3.54 46.77 3.54Z"></path></g><!----><g data-v-423bf9ae="" id="b4830f59-d934-46ec-91d9-02b26679cead" transform="matrix(1.1110288578850736,0,0,1.1110288578850736,-5.022283179747944,-8.888230863080587)" stroke="none" fill="#48A9DC"><path d="M4.702 89.006h89.107V16.101H53.306v8.1h32.402v56.704H12.803V64.704H4.702zM4.702 24.201h8.101v8.101H4.702z"></path><path d="M37.104 40.402h8.101v8.101h-8.101z"></path><path d="M45.205 24.201v-8.1H29.004V8h-8.101v8.101h-8.1v8.1h8.1v8.101h-8.1v8.1h8.1v8.101H4.702v8.101h16.201v8.1h8.101v-8.1h8.1v-8.101h-8.1v-8.101h8.1v-8.1h-8.1v-8.101z"></path></g><!----></svg>